<mxfile host="app.diagrams.net" modified="2020-08-27T07:22:02.895Z" agent="5.0 (Macintosh; Intel Mac OS X 10_14_6) AppleWebKit/605.1.15 (KHTML, like Gecko) Version/12.1.2 Safari/605.1.15" etag="lAIU4yT0mCCRZ7mGl06v" version="13.6.5" type="github">
  <diagram id="RXON7qDd9-JLHxwc-gOT" name="第 1 页">
    <mxGraphModel dx="920" dy="584" grid="1" gridSize="10" guides="1" tooltips="1" connect="1" arrows="1" fold="1" page="1" pageScale="1" pageWidth="827" pageHeight="1169" math="0" shadow="0">
      <root>
        <mxCell id="0" />
        <mxCell id="1" parent="0" />
        <mxCell id="vH1o1y9XhNApn_w2DO7_-1" value="" style="ellipse;whiteSpace=wrap;html=1;" vertex="1" parent="1">
          <mxGeometry x="180" y="220" width="120" height="80" as="geometry" />
        </mxCell>
        <mxCell id="vH1o1y9XhNApn_w2DO7_-2" value="" style="shape=parallelogram;perimeter=parallelogramPerimeter;whiteSpace=wrap;html=1;fixedSize=1;" vertex="1" parent="1">
          <mxGeometry x="300" y="110" width="120" height="60" as="geometry" />
        </mxCell>
      </root>
    </mxGraphModel>
  </diagram>
</mxfile>
